<svg width="200" height="201" fill="none" xmlns="http://www.w3.org/2000/svg"><g clip-path="url(#a)"><mask id="b" style="mask-type:alpha" maskUnits="userSpaceOnUse" x="0" y="0" width="200" height="201"><path fill-rule="evenodd" clip-rule="evenodd" d="M40 .653v40H0a19.994 19.994 0 0 1 5.788-13.12L26.646 6.542A20.016 20.016 0 0 1 40 .652Z" fill="#67F7F0"/><path transform="translate(40 .653)" fill="#67F7F0" d="M0 0h120v40H0z"/><path fill-rule="evenodd" clip-rule="evenodd" d="M200 40.653h-40v-40a19.995 19.995 0 0 1 13.12 5.788L194.111 27.3A20.018 20.018 0 0 1 200 40.653Z" fill="#67F7F0"/><path transform="translate(0 40.653)" fill="#67F7F0" d="M0 0h200v120H0z"/><path fill-rule="evenodd" clip-rule="evenodd" d="M0 160.653h40v40a19.997 19.997 0 0 1-13.12-5.788L5.89 174.007A20.017 20.017 0 0 1 0 160.653Z" fill="#67F7F0"/><path transform="translate(40 160.653)" fill="#67F7F0" d="M0 0h120v40H0z"/><path fill-rule="evenodd" clip-rule="evenodd" d="M160 200.653v-40h40a19.998 19.998 0 0 1-5.788 13.12l-20.858 20.991A20.019 20.019 0 0 1 160 200.653Z" fill="#67F7F0"/></mask><g mask="url(#b)"><path fill-rule="evenodd" clip-rule="evenodd" d="M40 .653v40H0a19.994 19.994 0 0 1 5.788-13.12L26.646 6.542A20.016 20.016 0 0 1 40 .652Z" fill="#67F7F0"/><path fill="#67F7F0" d="M40 .653h120v40H40z"/><path fill-rule="evenodd" clip-rule="evenodd" d="M200 40.653h-40v-40a19.995 19.995 0 0 1 13.12 5.788L194.111 27.3A20.018 20.018 0 0 1 200 40.653Z" fill="#67F7F0"/><g clip-path="url(#c)"><path fill="#67F7F0" d="M0 40.653h200v120H0z"/><path d="M39.85 160.309c-3.88 0-7.298-.766-10.25-2.296-2.952-1.531-5.248-3.69-6.888-6.478-1.64-2.843-2.46-6.096-2.46-9.758v-21.648c0-3.718.82-6.97 2.46-9.758 1.64-2.788 3.936-4.948 6.888-6.478 2.952-1.531 6.37-2.296 10.25-2.296 3.827 0 7.216.765 10.168 2.296 3.007 1.476 5.33 3.553 6.97 6.232 1.64 2.624 2.46 5.63 2.46 9.02v1.722c0 .273-.109.519-.328.738-.164.164-.382.246-.656.246H46.82a1.2 1.2 0 0 1-.738-.246 1.2 1.2 0 0 1-.246-.738v-1.558c0-1.75-.546-3.198-1.64-4.346-1.038-1.148-2.487-1.722-4.346-1.722-1.804 0-3.252.628-4.346 1.886-1.093 1.202-1.64 2.788-1.64 4.756v22.14c0 1.968.602 3.58 1.804 4.838 1.203 1.202 2.706 1.804 4.51 1.804 1.75 0 3.144-.52 4.182-1.558 1.094-1.094 1.64-2.542 1.64-4.346v-3.772c0-.274-.136-.41-.41-.41h-5.248a1.2 1.2 0 0 1-.738-.246 1.2 1.2 0 0 1-.246-.738v-8.856c0-.274.082-.492.246-.656.22-.219.465-.328.738-.328h18.122c.274 0 .492.109.656.328a.778.778 0 0 1 .328.656v13.202c0 3.662-.82 6.888-2.46 9.676-1.64 2.788-3.936 4.947-6.888 6.478-2.952 1.476-6.368 2.214-10.25 2.214Zm60.11-27.634c.109 2.296.164 4.072.164 5.33l-.082 3.28c0 .656-.328.984-.984.984H77.574c-.219 0-.328.109-.328.328 0 .601.109 1.394.328 2.378.273 1.148.792 2.05 1.558 2.706.82.656 1.858.984 3.116.984 2.296 0 3.854-.93 4.674-2.788.218-.547.628-.766 1.23-.656l10.496 2.05c.765.109 1.011.492.738 1.148-1.312 3.881-3.417 6.833-6.314 8.856-2.843 2.022-6.369 3.034-10.578 3.034-10.223 0-16.318-4.456-18.286-13.366-.492-2.132-.738-5.385-.738-9.758 0-2.57.164-4.702.492-6.396.601-4.319 2.487-7.763 5.658-10.332 3.17-2.57 7.161-3.854 11.972-3.854 5.248 0 9.512 1.476 12.792 4.428 3.334 2.952 5.193 6.833 5.576 11.644Zm-18.204-4.428c-1.148 0-2.105.355-2.87 1.066-.711.656-1.203 1.585-1.476 2.788l-.246 2.296c0 .273.136.41.41.41h8.364c.273 0 .41-.137.41-.41-.11-.984-.219-1.75-.328-2.296-.164-1.148-.629-2.078-1.394-2.788-.766-.711-1.722-1.066-2.87-1.066Zm44.938-11.644c4.1 0 7.298 1.312 9.594 3.936 2.296 2.569 3.444 6.177 3.444 10.824v27.306c0 .273-.11.519-.328.738-.164.164-.383.246-.656.246h-11.644c-.274 0-.52-.082-.738-.246a1.2 1.2 0 0 1-.246-.738v-25.338c0-1.531-.383-2.761-1.148-3.69-.766-.93-1.777-1.394-3.034-1.394-1.258 0-2.269.464-3.034 1.394-.766.929-1.148 2.159-1.148 3.69v25.338c0 .273-.11.519-.328.738-.164.164-.383.246-.656.246h-11.644c-.274 0-.52-.082-.738-.246a1.2 1.2 0 0 1-.246-.738v-40.426c0-.274.082-.492.246-.656.218-.219.464-.328.738-.328h11.644c.273 0 .492.109.656.328a.78.78 0 0 1 .328.656v2.296c0 .164.054.273.164.328.164 0 .3-.11.41-.328 1.968-2.624 4.756-3.936 8.364-3.936Zm53.626 16.072c.109 2.296.164 4.072.164 5.33l-.082 3.28c0 .656-.328.984-.984.984h-21.484c-.219 0-.328.109-.328.328 0 .601.109 1.394.328 2.378.273 1.148.792 2.05 1.558 2.706.82.656 1.858.984 3.116.984 2.296 0 3.854-.93 4.674-2.788.218-.547.628-.766 1.23-.656l10.496 2.05c.765.109 1.011.492.738 1.148-1.312 3.881-3.417 6.833-6.314 8.856-2.843 2.022-6.369 3.034-10.578 3.034-10.223 0-16.318-4.456-18.286-13.366-.492-2.132-.738-5.385-.738-9.758 0-2.57.164-4.702.492-6.396.601-4.319 2.487-7.763 5.658-10.332 3.17-2.57 7.161-3.854 11.972-3.854 5.248 0 9.512 1.476 12.792 4.428 3.334 2.952 5.193 6.833 5.576 11.644Zm-18.204-4.428c-1.148 0-2.105.355-2.87 1.066-.711.656-1.203 1.585-1.476 2.788l-.246 2.296c0 .273.136.41.41.41h8.364c.273 0 .41-.137.41-.41-.11-.984-.219-1.75-.328-2.296-.164-1.148-.629-2.078-1.394-2.788-.766-.711-1.722-1.066-2.87-1.066Z" fill="#0A0E09"/></g><path fill="#67F7F0" d="M0 160.653h200v40H0z"/><path fill-rule="evenodd" clip-rule="evenodd" d="M0 160.653h40v40a19.997 19.997 0 0 1-13.12-5.788L5.89 174.007A20.017 20.017 0 0 1 0 160.653Z" fill="#67F7F0"/><path fill="#67F7F0" d="M40 160.653h120v40H40z"/><path fill-rule="evenodd" clip-rule="evenodd" d="M160 200.653v-40h40a19.998 19.998 0 0 1-5.788 13.12l-20.858 20.991A20.019 20.019 0 0 1 160 200.653Z" fill="#67F7F0"/><path fill-rule="evenodd" clip-rule="evenodd" d="M-68 11.902v76.75l280-47.966v-77.033l-280 48.25Z" fill="#0A0E09"/></g></g><defs><clipPath id="a"><rect y=".653" width="200" height="200" rx="45" fill="#fff"/></clipPath><clipPath id="c"><path fill="#fff" transform="translate(0 40.653)" d="M0 0h200v120H0z"/></clipPath></defs></svg>
